<svg xmlns="http://www.w3.org/2000/svg" width="64" height="64" fill="none" viewBox="0 0 64 64"><g clip-path="url(#a)"><path fill="url(#b)" d="M52 0H12C5.373 0 0 5.373 0 12v40c0 6.627 5.373 12 12 12h40c6.627 0 12-5.373 12-12V12c0-6.627-5.373-12-12-12"/><path fill="#fff" d="M50 16H14a2 2 0 0 0-2 2v24a2 2 0 0 0 2 2h36a2 2 0 0 0 2-2V18a2 2 0 0 0-2-2" opacity=".9"/><path fill="#1E88E5" d="M49 18H15a1 1 0 0 0-1 1v22a1 1 0 0 0 1 1h34a1 1 0 0 0 1-1V19a1 1 0 0 0-1-1"/><path fill="#1CD12B" stroke="#fff" stroke-width="2" d="M44 48c6.627 0 12-5.373 12-12s-5.373-12-12-12-12 5.373-12 12 5.373 12 12 12Z"/><path fill="#fff" d="M36 44h-8v4h8zm6 4H22v2h20z" opacity=".9"/><path stroke="#fff" stroke-linecap="round" stroke-linejoin="round" stroke-width="2" d="m38 36 4 4 8-8"/></g><defs><linearGradient id="b" x1="0" x2="4096" y1="0" y2="4096" gradientUnits="userSpaceOnUse"><stop stop-color="#42A5F5"/><stop offset="1" stop-color="#1E88E5"/></linearGradient><clipPath id="a"><path fill="#fff" d="M0 0h64v64H0z"/></clipPath></defs></svg>