<svg width="64" height="64" viewBox="0 0 64 64" fill="none" xmlns="http://www.w3.org/2000/svg">
<g clip-path="url(#clip0_314_107)">
<path d="M52 0H12C5.37258 0 0 5.37258 0 12V52C0 58.6274 5.37258 64 12 64H52C58.6274 64 64 58.6274 64 52V12C64 5.37258 58.6274 0 52 0Z" fill="url(#paint0_linear_314_107)"/>
<path opacity="0.9" d="M50 16H14C12.8954 16 12 16.8954 12 18V42C12 43.1046 12.8954 44 14 44H50C51.1046 44 52 43.1046 52 42V18C52 16.8954 51.1046 16 50 16Z" fill="white"/>
<path d="M49 18H15C14.4477 18 14 18.4477 14 19V41C14 41.5523 14.4477 42 15 42H49C49.5523 42 50 41.5523 50 41V19C50 18.4477 49.5523 18 49 18Z" fill="#1E88E5"/>
<path d="M44 48C50.6274 48 56 42.6274 56 36C56 29.3726 50.6274 24 44 24C37.3726 24 32 29.3726 32 36C32 42.6274 37.3726 48 44 48Z" fill="#1CD12B" stroke="white" stroke-width="2"/>
<path opacity="0.9" d="M36 44H28V48H36V44Z" fill="white"/>
<path opacity="0.9" d="M42 48H22V50H42V48Z" fill="white"/>
<path d="M38 36L42 40L50 32" stroke="white" stroke-width="2" stroke-linecap="round" stroke-linejoin="round"/>
</g>
<defs>
<linearGradient id="paint0_linear_314_107" x1="0" y1="0" x2="4096" y2="4096" gradientUnits="userSpaceOnUse">
<stop stop-color="#42A5F5"/>
<stop offset="1" stop-color="#1E88E5"/>
</linearGradient>
<clipPath id="clip0_314_107">
<rect width="64" height="64" fill="white"/>
</clipPath>
</defs>
</svg>
